# xmcd CD database file
#
# Track frame offsets:
#	150
#	16289
#	27506
#	42329
#	59284
#	72715
#	87227
#	100851
#	116286
#	131899
#	144542
#	159567
#	174666
#	180725
#	197140
#	220871
#
# Disc length: 4107 seconds
#
# Revision: 0
# Processed by: cddbd v1.5.1PL2 Copyright (c) Steve Scherf et al.
# Submitted via: CDex 1.40Release
#
DISCID=eb100910
DTITLE=Daniel T. Coates - Let That One Run
DYEAR=2005
DGENRE=Country
TTITLE0=Let That One Run
TTITLE1=I Don't Listen To My Radio
TTITLE2=How's The World Treating You?
TTITLE3=Brokenheartsville
TTITLE4=House On The Highway
TTITLE5=Rosalee
TTITLE6=Color-blind
TTITLE7=That Girl
TTITLE8=You've Got A Lover
TTITLE9=Windowblinds
TTITLE10=Big River
TTITLE11=Who's Gonna Rescue Me?
TTITLE12=Satisfied Reprise
TTITLE13=House On The Highway (Electric)
TTITLE14=Hope You're Satisfied
TTITLE15=Video
EXTD=YEAR: 2005 ID3G: 2
EXTT0=
EXTT1=
EXTT2=
EXTT3=
EXTT4=
EXTT5=
EXTT6=
EXTT7=
EXTT8=
EXTT9=
EXTT10=
EXTT11=
EXTT12=
EXTT13=
EXTT14=
EXTT15=
PLAYORDER=
